# xmcd
#
# Track frame offsets:
#	182
#	13597
#	28412
#	46465
#	58642
#	69792
#	85772
#	97525
#	112990
#	135182
#	146580
#
# Disc length: 2123
#
# Revision: 5
# Processed by: cddbd v1.5.1PL0 Copyright (c) Steve Scherf et al.
# Submitted via: CDex 1.50Beta7
# Normalized: r4:TSWAP
#
DISCID=8108490b
DTITLE=Various Artist - Cool Country Hits
DYEAR=1996
DGENRE=Country
TTITLE0=Tim McGraw - Down On The Farm
TTITLE1=Sawyer Brown - Thank God For You
TTITLE2=Wynonna - No One Else On Earth
TTITLE3=Perfect Stranger - I Ain't Never
TTITLE4=Jeff Carson - Yeah Buddy
TTITLE5=Hank Williams Jr. - Hog Wild
TTITLE6=Junior Brown - Highway Patrol
TTITLE7=Boy Howdy - They Don't Make Them Like That Anymore
TTITLE8=Lyle Lovett - I've Been To Memphis
TTITLE9=Smokin' Armadillos - I'm A Cowboy
TTITLE10=Hal Ketchum - Veil Of Tears
EXTD=YEAR: 1996
EXTT0=
EXTT1=
EXTT2=
EXTT3=
EXTT4=
EXTT5=
EXTT6=
EXTT7=
EXTT8=
EXTT9=
EXTT10=
PLAYORDER=
